<svg xmlns="http://www.w3.org/2000/svg" xmlns:xlink="http://www.w3.org/1999/xlink" width="283" height="69" viewBox="0 0 283 69">
  <defs>
    <filter id="Rectangle_3742" x="0" y="0" width="283" height="69" filterUnits="userSpaceOnUse">
      <feOffset input="SourceAlpha"/>
      <feGaussianBlur stdDeviation="3" result="blur"/>
      <feFlood flood-opacity="0.161"/>
      <feComposite operator="in" in2="blur"/>
      <feComposite in="SourceGraphic"/>
    </filter>
  </defs>
  <g id="Group_2011" data-name="Group 2011" transform="translate(-1097 -754)">
    <g transform="matrix(1, 0, 0, 1, 1097, 754)" filter="url(#Rectangle_3742)">
      <rect id="Rectangle_3742-2" data-name="Rectangle 3742" width="265" height="51" rx="10" transform="translate(9 9)" fill="#fff"/>
    </g>
    <g id="Group_2010" data-name="Group 2010" transform="translate(1161.347 776)">
      <text id="log_In_with_Google" data-name="log In with Google" transform="translate(31.653 17)" font-size="13" font-family="Montserrat-SemiBold, Montserrat" font-weight="600"><tspan x="0" y="0">log In with Google</tspan></text>
      <g id="Group_20" data-name="Group 20" transform="translate(0 0)">
        <g id="Group_21" data-name="Group 21" transform="translate(2.465 3.817)">
          <g id="search">
            <path id="Path_54" data-name="Path 54" d="M3.854,10.539,3.249,12.8l-2.213.047a8.711,8.711,0,0,1-.064-8.12h0l1.97.361.863,1.958a5.19,5.19,0,0,0,.049,3.494Z" transform="translate(0 -0.029)" fill="#fbbb00"/>
            <path id="Path_55" data-name="Path 55" d="M17.295,7.115a8.692,8.692,0,0,1-3.1,8.406h0l-2.481-.127L11.362,13.2a5.183,5.183,0,0,0,2.23-2.646H8.942V7.115h8.353Z" transform="translate(-0.056 -0.044)" fill="#518ef8"/>
            <path id="Path_56" data-name="Path 56" d="M14.146,15.542h0a8.7,8.7,0,0,1-13.1-2.66l2.818-2.307a5.172,5.172,0,0,0,7.452,2.648Z" transform="translate(-0.006 -0.066)" fill="#28b446"/>
            <path id="Path_57" data-name="Path 57" d="M14.252,2,11.435,4.308A5.171,5.171,0,0,0,3.812,7.016L.979,4.7h0A8.7,8.7,0,0,1,14.252,2Z" transform="translate(-0.006)" fill="#f14336"/>
          </g>
        </g>
        <rect id="Rectangle_43" data-name="Rectangle 43" width="24" height="24" transform="translate(-0.347 0)" fill="none"/>
      </g>
    </g>
  </g>
</svg>
