<svg xmlns="http://www.w3.org/2000/svg" width="24" height="24" viewBox="0 0 24 24"><defs><style>.a{fill:#fbbb00;}.b{fill:#518ef8;}.c{fill:#28b446;}.d{fill:#f14336;}.e{fill:none;}</style></defs><g transform="translate(0.347)"><g transform="translate(2.465 3.817)"><path class="a" d="M3.854,10.539,3.249,12.8l-2.213.047a8.711,8.711,0,0,1-.064-8.12h0l1.97.361.863,1.958a5.19,5.19,0,0,0,.049,3.494Z" transform="translate(0 -0.029)"/><path class="b" d="M17.295,7.115a8.692,8.692,0,0,1-3.1,8.406h0l-2.481-.127L11.362,13.2a5.183,5.183,0,0,0,2.23-2.646H8.942V7.115h8.353Z" transform="translate(-0.056 -0.044)"/><path class="c" d="M14.146,15.542h0a8.7,8.7,0,0,1-13.1-2.66l2.818-2.307a5.172,5.172,0,0,0,7.452,2.648Z" transform="translate(-0.006 -0.066)"/><path class="d" d="M14.252,2,11.435,4.308A5.171,5.171,0,0,0,3.812,7.016L.979,4.7h0A8.7,8.7,0,0,1,14.252,2Z" transform="translate(-0.006)"/></g><rect class="e" width="24" height="24" transform="translate(-0.347 0)"/></g></svg>