<svg xmlns="http://www.w3.org/2000/svg" width="50" height="50" viewBox="0 0 50 50"><defs><style>.a{fill:#008cff;}.b{fill:#fff;}</style></defs><g transform="translate(-1035 -401)"><circle class="a" cx="25" cy="25" r="25" transform="translate(1035 401)"/><g transform="translate(1045 409)"><path class="b" d="M138.051,8.2h.293V9.668a.879.879,0,0,0,1.428.686L142.461,8.2H143.6l2.689,2.151a.879.879,0,0,0,1.428-.686V8.2h.293a2.051,2.051,0,0,0,2.051-2.051v-4.1A2.051,2.051,0,0,0,148.012,0h-9.961A2.051,2.051,0,0,0,136,2.051v4.1A2.051,2.051,0,0,0,138.051,8.2Zm2.344-4.98h5.273a.879.879,0,0,1,0,1.758h-5.273a.879.879,0,1,1,0-1.758Z" transform="translate(-128.031)"/><path class="b" d="M130,452h14.766v3.516H130Z" transform="translate(-122.383 -425.516)"/><path class="b" d="M6.738,290.068H12.3a1.758,1.758,0,1,0,0-3.516H8.789v-.879a4.373,4.373,0,0,0-.721-2.411,5.268,5.268,0,0,1-5.85-1.406A4.392,4.392,0,0,0,0,285.673v8.789a.879.879,0,0,0,.879.879h4.98V291.7a3.223,3.223,0,0,1-2.344-3.1v-1.172a.879.879,0,1,1,1.758,0V288.6A1.465,1.465,0,0,0,6.738,290.068Z" transform="translate(0 -265.341)"/><ellipse class="b" cx="4" cy="3.5" rx="4" ry="3.5" transform="translate(2 9)"/><ellipse class="b" cx="4" cy="3.5" rx="4" ry="3.5" transform="translate(20 9)"/><path class="b" d="M283.845,281.856a5.268,5.268,0,0,1-5.85,1.406,4.373,4.373,0,0,0-.721,2.411v.879h-3.516a1.758,1.758,0,0,0,0,3.516h5.566a1.465,1.465,0,0,0,1.465-1.465v-1.172a.879.879,0,1,1,1.758,0V288.6a3.223,3.223,0,0,1-2.344,3.1v3.638h4.98a.879.879,0,0,0,.879-.879v-8.789A4.392,4.392,0,0,0,283.845,281.856Z" transform="translate(-256.063 -265.341)"/></g></g></svg>