<svg xmlns="http://www.w3.org/2000/svg" width="30" height="51.428" viewBox="0 0 30 51.428"><defs><style>.a{fill:#98c6f9;}.b{fill:#eceff1;}.c{fill:#fed638;}</style></defs><g transform="translate(-106.667)"><g transform="translate(106.667)"><path class="a" d="M133.453,0H109.881a3.214,3.214,0,1,0,0,6.429h23.571a3.214,3.214,0,1,0,0-6.429Z" transform="translate(-106.667)"/><path class="a" d="M152.643,85.524H129.071A1.071,1.071,0,0,1,128,84.453V75.485a9.643,9.643,0,0,1,3.294-7.258l3.8-3.326a1.071,1.071,0,0,0,0-1.611l-3.8-3.326A9.643,9.643,0,0,1,128,52.706V43.738a1.071,1.071,0,0,1,1.071-1.071h23.571a1.071,1.071,0,0,1,1.071,1.071v8.968a9.643,9.643,0,0,1-3.294,7.258l-3.8,3.326a1.071,1.071,0,0,0,0,1.611l3.8,3.326a9.643,9.643,0,0,1,3.294,7.258v8.968A1.072,1.072,0,0,1,152.643,85.524Z" transform="translate(-125.857 -38.381)"/></g><path class="b" d="M149.333,102.571h21.428v-7.9a7.5,7.5,0,0,0-2.571-5.644l-3.8-3.326a3.214,3.214,0,0,1,0-4.838l3.8-3.326a7.5,7.5,0,0,0,2.571-5.644V64H149.333v7.9a7.5,7.5,0,0,0,2.571,5.644l3.8,3.326a3.214,3.214,0,0,1,0,4.836l-3.8,3.328a7.5,7.5,0,0,0-2.571,5.644Z" transform="translate(-38.38 -57.571)"/><path class="c" d="M204.759,171.329a1.071,1.071,0,0,0-.99-.662H193.054a1.071,1.071,0,0,0-.759,1.83l5.357,5.357a1.071,1.071,0,0,0,1.515,0l5.357-5.357A1.071,1.071,0,0,0,204.759,171.329Z" transform="translate(-76.745 -153.524)"/><path class="a" d="M133.453,448H109.881a3.214,3.214,0,1,0,0,6.429h23.571a3.214,3.214,0,1,0,0-6.429Z" transform="translate(0 -403)"/><path class="c" d="M160.767,330.958a1.071,1.071,0,0,0-1.476.036l-9.958,9.956v1.515h21.428v-2.421Z" transform="translate(-38.38 -297.465)"/></g></svg>