<svg xmlns="http://www.w3.org/2000/svg" width="22.49" height="23" viewBox="0 0 22.49 23"><defs><style>.a{fill:#7bc447;}</style></defs><g transform="translate(-5.411)"><g transform="translate(5.411)"><path class="a" d="M119.9,258.764a.522.522,0,0,0-.522-.522h-1.822a.522.522,0,0,0-.522.522v1.822a.522.522,0,0,0,.522.522h1.822a.522.522,0,0,0,.522-.522v-1.822Z" transform="translate(-111.776 -246.075)"/><path class="a" d="M216.535,258.764a.522.522,0,0,0-.522-.522h-1.822a.522.522,0,0,0-.522.522v1.822a.522.522,0,0,0,.522.522h1.822a.522.522,0,0,0,.522-.522Z" transform="translate(-203.858 -246.075)"/><path class="a" d="M313.164,258.764a.522.522,0,0,0-.522-.522H310.82a.522.522,0,0,0-.522.522v1.822a.522.522,0,0,0,.522.522h1.822a.522.522,0,0,0,.522-.522Z" transform="translate(-295.933 -246.075)"/><path class="a" d="M119.9,355.4a.522.522,0,0,0-.522-.522h-1.822a.522.522,0,0,0-.522.522v1.821a.522.522,0,0,0,.522.522h1.822a.522.522,0,0,0,.522-.522V355.4Z" transform="translate(-111.776 -338.155)"/><path class="a" d="M216.535,355.4a.522.522,0,0,0-.522-.522h-1.822a.522.522,0,0,0-.522.522v1.821a.522.522,0,0,0,.522.522h1.822a.522.522,0,0,0,.522-.522Z" transform="translate(-203.858 -338.155)"/><path class="a" d="M313.164,355.4a.522.522,0,0,0-.522-.522H310.82a.522.522,0,0,0-.522.522v1.821a.522.522,0,0,0,.522.522h1.822a.522.522,0,0,0,.522-.522V355.4Z" transform="translate(-295.933 -338.155)"/><path class="a" d="M25.9,54.152v2.782a2.272,2.272,0,0,1-2.277,2.271H22.185a2.284,2.284,0,0,1-2.291-2.271V54.142H13.418v2.792a2.284,2.284,0,0,1-2.291,2.271H9.69a2.272,2.272,0,0,1-2.277-2.271V54.152a2.071,2.071,0,0,0-2,2.06V72.517a2.072,2.072,0,0,0,2.062,2.074H25.839A2.074,2.074,0,0,0,27.9,72.517V56.212A2.071,2.071,0,0,0,25.9,54.152ZM25.232,71.5a.891.891,0,0,1-.891.891H8.932a.891.891,0,0,1-.891-.891V63.08a.891.891,0,0,1,.891-.891H24.34a.891.891,0,0,1,.891.891V71.5Z" transform="translate(-5.411 -51.591)"/><path class="a" d="M80.331,6.122h1.421a.781.781,0,0,0,.781-.781V.781A.781.781,0,0,0,81.752,0H80.331a.781.781,0,0,0-.781.781V5.342A.781.781,0,0,0,80.331,6.122Z" transform="translate(-76.057)"/><path class="a" d="M345.239,6.122h1.421a.781.781,0,0,0,.781-.781V.781A.781.781,0,0,0,346.66,0h-1.421a.781.781,0,0,0-.781.781V5.342A.781.781,0,0,0,345.239,6.122Z" transform="translate(-328.483)"/></g></g></svg>