<svg xmlns="http://www.w3.org/2000/svg" width="25.83" height="25.848" viewBox="0 0 25.83 25.848"><defs><style>.a{fill:#7bc447;}</style></defs><g transform="translate(-0.009)"><path class="a" d="M25.839,4.958a14.336,14.336,0,0,1-1.784,6.9.767.767,0,0,1-1.311-.8,13,13,0,0,0,1.561-6.1,3.153,3.153,0,0,0-3.068-3.424A3.071,3.071,0,0,0,18.169,4.6a24.263,24.263,0,0,0,.483,3.2.767.767,0,0,1-1.5.314A25.219,25.219,0,0,1,16.633,4.6a4.609,4.609,0,0,1,4.6-4.6A4.685,4.685,0,0,1,25.839,4.958ZM21.367,6.165c.305,2.549.747,7.516.239,8.022L10.46,25.334a1.755,1.755,0,0,1-2.484,0L.523,17.881a1.756,1.756,0,0,1,0-2.484L11.67,4.251a16.61,16.61,0,0,1,4.273-.072c-.012.143-.043.278-.043.424a15.184,15.184,0,0,0,.252,2.176,2.109,2.109,0,1,0,2.95-.55A12.857,12.857,0,0,1,18.9,4.6c0-.068.014-.131.02-.2.267.028.53.057.779.088C21.172,4.674,21.187,4.671,21.367,6.165Zm-5.941,8.342a4.805,4.805,0,0,0-1.086-1.722l.846-.847L14.244,11l-.913.914A2.494,2.494,0,0,0,9.994,12c-.932.932-.712,2.115-.028,3.49.47.952.556,1.5.191,1.865s-.98.212-1.529-.336A4.8,4.8,0,0,1,7.456,15l-1.414.838a5.51,5.51,0,0,0,1.23,2.037l-.922.923.941.942.991-.99a2.584,2.584,0,0,0,3.48-.057c.875-.877.952-1.857.2-3.414-.52-1.116-.645-1.664-.337-1.971.27-.27.75-.347,1.375.278A4.227,4.227,0,0,1,14.05,15.3Z"/></g></svg>