<svg xmlns="http://www.w3.org/2000/svg" width="28" height="19.25" viewBox="0 0 28 19.25"><defs><style>.a{fill:#7bc447;}</style></defs><g transform="translate(0 -80)"><path class="a" d="M28,84.539V83.063A3.062,3.062,0,0,0,24.938,80H3.063A3.062,3.062,0,0,0,0,83.063v1.477a.273.273,0,0,0,.273.273H27.727A.273.273,0,0,0,28,84.539Z"/><path class="a" d="M0,200.273v9.352a3.062,3.062,0,0,0,3.063,3.063H24.938A3.062,3.062,0,0,0,28,209.625v-9.352a.273.273,0,0,0-.273-.273H.273A.273.273,0,0,0,0,200.273Zm7,7.164a.875.875,0,0,1-.875.875H5.25a.875.875,0,0,1-.875-.875v-.875a.875.875,0,0,1,.875-.875h.875a.875.875,0,0,1,.875.875Z" transform="translate(0 -113.438)"/></g></svg>